<svg xmlns="http://www.w3.org/2000/svg" viewBox="0 0 32 32" fill="white">
  <path d="M32 24.795c-1.164.296-1.955.493-2.477.493-.854 0-1.197-.355-1.197-1.076v-7.694c0-2.604-.556-4.283-2.14-5.8-1.254-1.2-3.05-1.795-5.388-1.795-2.604 0-5.33.808-7.876 2.14l.9 2.962c2.11-1.02 4.11-1.64 5.978-1.64 2.26 0 3.347 1.133 3.347 3.443l.022 1.02h-.02c-2.75 0-5.388.478-7.376 1.418-2.36 1.11-3.588 2.81-3.588 5.123 0 3.067 2.32 5.15 5.62 5.15 2.14 0 3.92-.91 5.634-2.75.18.715.39 1.35.656 1.91h5.024c-.597-1.123-.897-2.474-.897-4.14v-.764H32zm-8.07-1.36c-1.02 1.35-2.5 2.24-3.99 2.24-1.67 0-2.67-.89-2.67-2.5 0-1.95 1.5-3.09 5.32-3.09h1.35v3.35zm-7.64-12.55l-2.04-2.04-7.376 7.377-3.39-3.39-2.04 2.04 5.43 5.427 9.416-9.416z"/>
</svg>
