<svg xmlns="http://www.w3.org/2000/svg" viewBox="0 0 109 113" fill="none">
  <path fill="#3ECF8E" d="M63.708 110.284c-2.86 3.601-8.553 1.628-8.553-2.965V64.319H5.247C2.337 64.319 0 61.982 0 59.071V4.248C0 1.337 2.337 0 5.247 0h99.009c2.91 0 5.247 1.337 5.247 4.248v54.823c0 2.911-2.337 5.248-5.247 5.248H86.016l-22.308 46.965z"/>
  <path fill="url(#supabase-a)" fill-opacity=".2" d="M63.708 110.284c-2.86 3.601-8.553 1.628-8.553-2.965V64.319H5.247C2.337 64.319 0 61.982 0 59.071V4.248C0 1.337 2.337 0 5.247 0h99.009c2.91 0 5.247 1.337 5.247 4.248v54.823c0 2.911-2.337 5.248-5.247 5.248H86.016l-22.308 46.965z"/>
  <path fill="white" d="M45.315 2.715c2.86-3.6 8.554-1.627 8.554 2.965v42.999h49.907c2.91 0 5.247 2.337 5.247 5.248v54.823c0 2.91-2.337 4.248-5.247 4.248H4.767c-2.91 0-5.247-1.338-5.247-4.248V53.927c0-2.911 2.337-5.248 5.247-5.248h18.24l22.308-45.964z"/>
  <defs>
    <linearGradient id="supabase-a" x1="53.974" x2="94.163" y1="54.974" y2="71.829" gradientUnits="userSpaceOnUse">
      <stop stop-color="#249361"/>
      <stop offset="1" stop-color="#3ECF8E"/>
    </linearGradient>
  </defs>
</svg>
