<svg xmlns="http://www.w3.org/2000/svg" viewBox="0 0 400 400" fill="white">
  <path d="M0 200V0h400v400H0" fill="#3178C6"/>
  <path d="M87.7 200.7V217h52v148h36.9V217h52v-16c0-9 0-16.3-.4-16.5 0-.3-31.7-.4-70.2-.4l-70 .3v16.4l-.3-.1zM321.4 184c10.2 2.4 18 7 25 14.3 3.7 4 9.2 11 9.6 12.8 0 .6-17.3 12.3-27.8 18.8-.4.3-2-1.4-3.6-4-5.2-7.4-10.5-10.6-18.8-11.2-12-.8-20 5.5-20 16 0 3.2.6 5 1.8 7.6 2.7 5.5 7.7 8.8 23.2 15.6 28.6 12.3 41 20.4 48.5 32 8.5 13 10.4 33.4 4.7 48.7-6.4 16.7-22 28-44 32-7 1.3-23.5 1-30.7-.3-15.8-3.4-30.5-13.2-40-27a94.2 94.2 0 0 1-5.5-10.3c.4-.6 5-3 10.3-5.6L262 296c-.4 0 1 2.6 3.3 5.8 6.7 9.5 13.7 13.7 25 15.5 13.5 2 26.7-3 26.5-10-.2-2.7-1.4-5.3-3.4-7-6-5-16.3-9.7-32-14.7C252 275 236.4 263 228 243.6c-4-9.5-5-14-5-24.3 0-10.4.7-15 3.4-22.7 5.8-17 21-30 42-36 7-2 23.6-2 31.3 0h1l-.3.1z"/>
</svg>
